<svg width="110" height="60" viewBox="0 0 110 60" fill="none" xmlns="http://www.w3.org/2000/svg">
<path fill-rule="evenodd" clip-rule="evenodd" d="M93.0311 15.9505C91.3682 15.9505 89.9824 14.5595 89.9824 12.8902C89.9824 11.221 91.3682 9.82996 93.0311 9.82996C94.6941 9.82996 96.0798 11.221 96.0798 12.8902C96.0798 14.5595 94.6941 15.9505 93.0311 15.9505Z" fill="#ED1C24"/>
<path fill-rule="evenodd" clip-rule="evenodd" d="M44.6221 23.2766C42.0353 23.2766 39.6333 28.0989 39.3561 34.1267C39.079 38.578 40.0028 42.6584 41.6658 44.5131C42.2201 45.1623 42.8668 45.4405 43.5135 45.5332H43.6059C46.1927 45.5332 48.5947 40.7109 48.8718 34.6831C49.149 30.2318 48.2251 26.1514 46.4698 24.2967C45.9155 23.6476 45.2688 23.3694 44.6221 23.2766C44.6221 23.2766 44.7145 23.2766 44.6221 23.2766ZM82.7772 57.7743L82.962 57.5888C86.9346 53.8794 89.8909 50.2627 92.6625 45.9041C95.6188 40.34 96.635 35.1468 95.896 29.9536C95.7112 29.119 95.434 29.119 95.3416 29.119C94.9721 29.119 94.4178 29.4899 93.8635 29.9536C87.4889 36.3524 84.163 43.0293 83.3315 50.8191V51.0046L79.359 51.932V51.6538C79.1742 41.8238 79.8209 32.1793 81.4838 22.0711H74.093L74.0006 28.748L70.0281 28.6553L69.7509 24.2967C69.289 23.3694 68.6423 22.9984 67.9032 22.9984C67.5337 22.9984 67.0717 23.0912 66.6098 23.3694C64.3002 24.6677 63.0992 27.6352 62.822 33.2921C62.5449 37.9289 62.6372 41.2674 64.2078 42.9366C64.9469 43.6785 65.8707 44.0494 67.0717 44.0494C67.5337 44.0494 67.9956 44.0494 68.4575 43.9567C70.3976 43.0293 71.8758 41.1746 73.0768 38.1143L73.1692 37.9289L75.2016 37.7434L75.1093 38.0216C73.9082 44.6058 70.8595 47.6661 65.3164 47.6661C64.6697 47.6661 64.023 47.6661 63.2839 47.5734C58.2027 46.3678 56.5398 40.9892 58.2951 31.9938C59.219 27.4497 60.9743 24.2967 63.7459 22.1638H50.9043C52.752 24.6677 53.6759 28.0989 53.6759 32.3647C53.1216 41.1746 50.1652 45.9969 44.5297 47.5734C43.6983 47.7589 42.8668 47.9443 41.9429 47.9443C40.8343 47.9443 39.5409 47.7589 38.3399 47.3879C36.1227 46.3678 34.7369 44.5131 34.3673 42.102C33.5359 36.3524 33.9978 33.663 35.8455 28.1916C36.9541 24.9459 38.9866 23.1839 40.8343 22.0711H26.607L26.7917 28.748H24.0202V28.4698C24.205 26.8933 23.9278 25.595 23.0963 24.6677C22.3572 23.833 21.1562 23.2766 19.7705 23.2766C18.6618 23.2766 17.6456 23.6476 17.0913 24.1113C15.7979 24.7604 15.0588 26.5224 15.1512 28.2844C15.336 30.6955 16.9989 32.5502 19.7705 33.4776C24.2973 35.2395 27.4384 38.1143 29.2861 42.2875C31.0415 48.2225 28.6394 53.323 23.0039 55.2704C21.9877 55.4559 20.9715 55.5487 20.0476 55.5487C19.1238 55.5487 18.1075 55.4559 17.1837 55.2704C15.0588 54.8995 13.1187 54.1576 11.3634 53.1375L11.271 53.0448V43.864H14.0426V44.1422C13.673 49.1499 14.9664 51.932 17.9228 52.6739C18.4771 52.7666 19.0314 52.8593 19.5857 52.8593C21.8953 52.8593 23.8354 52.0247 25.0364 50.5409C25.9603 49.3354 26.2374 47.7589 25.7755 46.0896C25.0364 43.493 22.8192 41.3601 18.5694 39.4126C14.3197 37.6507 11.7329 34.7759 11.1786 31.1592C10.9015 27.1715 12.0101 24.3895 14.7816 22.3493H0L4.06495 18.5471H82.2229C82.7772 13.1684 83.9782 7.3261 86.1031 0.649125L86.1955 0.463654H92.7549V2.78205H92.5701C89.1518 5.10044 87.1193 10.3864 86.4726 18.5471H109.846L105.874 22.1638H86.0107L84.9021 38.7635C87.9508 33.0139 91.3691 28.4698 95.0645 25.2241L95.1569 25.1313H100.7V25.3168C102.732 39.8763 98.2056 46.8315 92.9396 52.2102L84.9021 59.9072L82.7772 57.7743Z" fill="black"/>
<path fill-rule="evenodd" clip-rule="evenodd" d="M95.8043 0.277757C95.0653 0.277757 94.5109 0.834171 94.5109 1.57606C94.5109 2.31794 95.0653 2.87436 95.8043 2.87436C96.5434 2.87436 97.0977 2.31794 97.0977 1.57606C97.0977 0.834171 96.5434 0.277757 95.8043 0.277757ZM95.8043 3.05983C94.9729 3.05983 94.3262 2.41068 94.3262 1.57606C94.3262 0.741435 94.9729 0.0922852 95.8043 0.0922852C96.6358 0.0922852 97.2825 0.741435 97.2825 1.57606C97.3749 2.41068 96.6358 3.05983 95.8043 3.05983Z" fill="black"/>
<path fill-rule="evenodd" clip-rule="evenodd" d="M95.434 1.39103H95.7111C95.8959 1.39103 95.9883 1.39103 95.9883 1.39103C95.9883 1.39103 96.0807 1.39103 96.0807 1.29829V1.20555C96.0807 1.11282 96.0807 1.11282 96.0807 1.11282L95.9883 1.02008C95.9883 1.02008 95.8959 1.02008 95.7111 1.02008H95.434V1.39103ZM95.0645 2.41112V0.649139H95.8035C95.9883 0.649139 96.0807 0.649139 96.1731 0.649139C96.2655 0.649139 96.3578 0.741875 96.3578 0.834611C96.4502 0.927347 96.4502 1.02008 96.4502 1.11282C96.4502 1.20555 96.4502 1.29829 96.3578 1.39103C96.2655 1.48376 96.1731 1.48376 95.9883 1.5765C96.0807 1.5765 96.0807 1.66923 96.1731 1.76197C96.2655 1.8547 96.2655 1.94744 96.3578 2.04018L96.5426 2.41112H96.1731L95.8959 2.04018C95.8035 1.94744 95.7111 1.8547 95.7111 1.76197L95.6188 1.66923C95.6188 1.66923 95.5264 1.66923 95.434 1.66923H95.3416V2.41112H95.0645Z" fill="black"/>
</svg>
